<svg version="1.1" id="Layer_1" xmlns="http://www.w3.org/2000/svg" xmlns:xlink="http://www.w3.org/1999/xlink" x="0px" y="0px"
	 width="100%" viewBox="0 0 813 528" enable-background="new 0 0 813 528" xml:space="preserve">
<path fill="#FFFFFF" opacity="1.000000" stroke="none" 
	d="
M587.000000,529.000000 
	C391.333344,529.000000 196.166672,529.000000 1.000000,529.000000 
	C1.000000,353.000000 1.000000,177.000000 1.000000,1.000000 
	C272.000000,1.000000 543.000000,1.000000 814.000000,1.000000 
	C814.000000,177.000000 814.000000,353.000000 814.000000,529.000000 
	C738.500000,529.000000 663.000000,529.000000 587.000000,529.000000 
M327.843597,466.001495 
	C329.724792,466.001495 331.605988,466.001495 333.487183,466.001495 
	C333.639923,465.591003 333.792694,465.180511 333.945465,464.770020 
	C332.969940,463.844086 331.994415,462.918152 331.002258,461.261963 
	C331.006104,460.531647 331.009918,459.801361 331.555206,458.444946 
	C331.588745,451.770813 331.619141,445.096649 331.656586,438.422546 
	C331.715698,427.886566 331.780060,417.350555 331.841064,406.814575 
	C331.858215,403.851379 331.174072,401.565948 327.427185,402.076721 
	C324.392914,402.490356 320.037872,400.830536 319.941833,406.153809 
	C319.653839,422.120911 319.481293,438.091614 319.508362,454.060547 
	C319.511353,455.816223 321.098175,457.569244 321.961823,460.123749 
	C321.729828,463.723450 322.264923,466.660614 327.843597,466.001495 
M393.791748,465.996613 
	C396.131531,465.358917 398.899139,465.294800 400.708160,463.945465 
	C403.248413,462.050720 407.750305,460.940826 406.369537,455.404602 
	C411.660309,452.537720 413.780457,448.202881 412.553314,441.555786 
	C416.584259,429.550293 414.451233,419.178101 405.571564,409.723846 
	C396.434540,399.995667 382.840302,398.610657 371.464722,404.762207 
	C359.597321,411.179749 354.302551,423.720673 356.063232,436.110474 
	C357.633850,447.163147 364.387817,453.825317 373.901489,459.073578 
	C372.690826,460.150269 371.480133,461.226959 370.264252,462.308289 
	C372.936920,466.764832 384.815765,468.700958 393.791748,465.996613 
M688.776489,466.974182 
	C691.181091,466.963776 693.585632,466.953369 696.662476,466.973938 
	C697.451599,466.672882 698.240662,466.371857 699.860229,466.061676 
	C706.515930,465.643005 711.583069,462.660126 714.913818,456.810150 
	C715.637695,455.538696 716.375977,454.225494 717.355591,453.159363 
	C719.842834,450.452576 719.161926,448.519226 715.742004,446.421143 
	C708.655212,440.606445 707.719299,440.413330 702.973511,443.785767 
	C696.221863,448.583679 687.362244,448.213593 680.465637,442.845703 
	C675.758179,439.181732 674.446411,431.546570 677.929688,423.881317 
	C678.169800,423.052734 678.409851,422.224152 678.689758,421.107178 
	C678.689758,421.107178 678.955566,420.988403 679.654541,420.976868 
	C680.767456,419.646179 681.880371,418.315460 683.349365,416.462585 
	C684.317810,416.084259 685.286255,415.705902 686.889832,415.690918 
	C687.616272,415.280579 688.342712,414.870270 689.876587,414.216766 
	C695.480408,413.916077 700.510742,415.046021 704.061340,420.582947 
	C704.218262,422.111969 704.303589,423.652924 704.555359,425.166138 
	C704.746704,426.315796 705.149719,427.430206 705.458435,428.560303 
	C706.552124,428.130676 707.888000,427.964264 708.694275,427.222290 
	C711.163452,424.950012 713.295532,422.304291 715.813538,420.094208 
	C718.135803,418.055908 719.521057,416.281799 715.955139,413.333466 
	C709.637390,404.202057 700.710632,400.091034 689.900208,401.224731 
	C679.637634,402.300995 671.438965,407.579437 666.636475,416.902496 
	C660.366760,429.073914 661.162781,440.795898 670.086548,452.332245 
	C670.281860,454.606384 669.606873,458.012482 670.828491,458.951660 
	C675.265442,462.362793 679.391052,467.046082 686.336914,466.512360 
	C686.886963,466.646729 687.437012,466.781097 688.776489,466.974182 
M255.753403,466.020416 
	C256.502686,466.012299 257.251953,466.004181 258.587524,466.570343 
	C264.660675,466.311523 271.298920,467.538239 276.690369,465.487335 
	C288.223816,461.100006 292.510254,456.377533 293.551910,440.548157 
	C293.875488,437.681488 294.080505,434.795471 294.543976,431.951599 
	C296.200897,421.784088 290.456421,411.095764 282.027740,406.230713 
	C270.395935,399.516846 257.927094,402.093292 244.873169,403.187408 
	C244.582657,404.090179 244.042984,404.991852 244.038986,405.895874 
	C243.978851,419.515869 243.969101,433.136261 244.021484,446.756226 
	C244.025589,447.827972 244.577118,448.897644 245.049072,450.727112 
	C244.984055,451.497681 244.919022,452.268219 244.365204,453.373566 
	C244.516235,454.234100 244.667252,455.094666 244.942947,456.662445 
	C244.867798,457.134033 244.792633,457.605591 244.275452,458.512054 
	C243.998123,460.755737 243.720810,462.999420 243.348419,466.012329 
	C247.263290,466.012329 251.133789,466.012329 255.753403,466.020416 
M531.944153,460.049194 
	C532.049255,461.849792 531.839294,465.119781 532.308960,465.220520 
	C536.378967,466.093323 540.571167,466.396576 545.309082,466.935577 
	C543.455811,463.641235 542.245056,461.488953 541.792236,458.955658 
	C542.175903,455.291931 543.004578,451.609039 542.848206,447.968536 
	C542.546875,440.956329 543.744995,434.695251 547.877563,428.716248 
	C552.786438,421.613983 556.867004,413.937622 561.267517,406.487061 
	C561.979187,405.282135 562.488342,403.957611 563.171997,402.518127 
	C552.642944,401.221466 550.021912,401.981110 547.154297,409.771851 
	C545.698547,413.726746 542.964355,417.237762 540.632874,420.835846 
	C538.442688,424.215790 536.144470,424.149658 533.949158,420.721222 
	C531.956726,417.609558 530.079895,414.422058 528.210144,411.233978 
	C522.607727,401.681427 519.252625,400.103851 509.969513,403.482697 
	C513.241089,409.114502 516.029419,414.924988 519.732544,420.078064 
	C527.366882,430.701569 532.005981,441.981079 530.196960,455.357666 
	C530.032837,456.571075 531.343201,457.983887 531.944153,460.049194 
M221.059280,440.950592 
	C221.038498,440.300140 221.017715,439.649719 220.863297,438.301636 
	C220.863297,426.428101 220.863297,414.554565 220.863297,402.294159 
	C219.304825,402.139191 217.862823,401.905670 216.415634,401.867279 
	C209.558731,401.685211 209.174103,402.101013 209.179413,409.002655 
	C209.185944,417.482941 209.214005,425.963776 209.130920,434.443359 
	C209.065475,441.123718 204.493088,446.755890 198.569977,447.673218 
	C192.315826,448.641846 185.779633,444.892059 183.979767,438.453796 
	C182.935883,434.719727 183.085312,430.603485 183.022232,426.654022 
	C182.893341,418.584625 182.983612,410.511749 182.983612,402.445862 
	C181.143051,402.148773 180.008041,401.878632 178.859406,401.794556 
	C172.259613,401.311523 171.111176,402.430023 171.110504,409.129242 
	C171.109695,417.276978 171.361435,425.438202 170.973450,433.568268 
	C170.650543,440.334473 171.972229,446.395691 176.006561,452.590485 
	C174.282150,456.927643 175.349228,460.354523 179.497116,462.570190 
	C181.650635,463.720520 183.924301,464.684021 186.219986,465.523193 
	C194.102066,468.404572 201.994080,467.362610 209.494431,464.481201 
	C214.551819,462.538391 220.622986,448.967316 219.981659,442.308838 
	C220.172058,441.897491 220.362473,441.486145 221.059280,440.950592 
M452.821136,460.418060 
	C451.576630,461.598267 450.332092,462.778473 449.169281,463.881165 
	C449.549347,464.568085 449.637238,464.952942 449.875732,465.111969 
	C450.414093,465.471069 451.034058,465.986359 451.608368,465.970947 
	C459.584015,465.757629 467.586334,465.753357 475.508636,464.962097 
	C477.201141,464.792999 478.681000,461.758942 480.110352,459.928741 
	C481.212860,458.517090 482.367218,457.030212 482.982758,455.383942 
	C483.716339,453.421783 483.899292,451.253754 484.432861,448.431244 
	C488.653381,436.953186 482.743469,428.174622 470.311279,425.883453 
	C465.913208,425.072876 461.481049,424.186890 457.273560,422.731018 
	C455.590973,422.148834 453.418488,419.943695 453.407593,418.463074 
	C453.397614,417.106903 455.824341,414.863708 457.483521,414.528931 
	C462.254761,413.566315 467.084137,413.482178 470.982758,417.530792 
	C471.816772,418.396851 473.750519,418.966370 474.880432,418.640869 
	C478.158569,417.696381 481.285645,416.227509 485.455566,414.574493 
	C482.569550,411.259338 480.698517,408.310242 478.108002,406.278625 
	C468.951202,399.097534 459.042236,399.870026 449.047394,404.395325 
	C443.129425,407.074829 439.918152,413.825043 440.431549,422.015289 
	C440.820679,428.222595 443.716553,431.576050 450.738403,433.814514 
	C452.320038,434.318695 453.969360,434.614563 455.593079,434.981995 
	C460.137146,436.010254 464.792603,436.710114 469.172119,438.214783 
	C470.738251,438.752808 472.262207,441.103333 472.604340,442.860474 
	C472.799622,443.863495 470.551056,446.429535 469.442993,446.405884 
	C465.239105,446.316315 460.123962,446.758118 457.073883,444.583160 
	C452.418427,441.263397 448.514709,441.186157 443.696838,442.967285 
	C438.093719,445.038727 436.931091,448.178528 441.370636,452.304016 
	C444.714600,455.411407 449.167053,457.325897 452.821136,460.418060 
M599.829834,458.943512 
	C600.186523,457.421875 600.836731,455.902893 600.850708,454.378113 
	C600.922607,446.561829 600.805664,438.744049 600.815552,430.926849 
	C600.817749,429.226593 601.068665,427.526672 601.205017,425.826599 
	C603.609680,426.978210 605.053223,428.323517 605.989319,429.959320 
	C610.914490,438.566284 615.676819,447.266388 620.592712,455.878815 
	C621.278870,457.080963 622.449707,458.809967 623.483887,458.873810 
	C628.535278,459.185394 633.616394,459.014923 638.897949,459.014923 
	C638.897949,440.738007 638.891846,423.290222 638.902222,405.842468 
	C638.904968,401.266510 635.559326,402.097137 632.854797,402.183655 
	C629.978333,402.275635 626.577759,401.653442 626.751160,406.499969 
	C627.000854,413.483002 627.065857,420.480225 626.920654,427.465393 
	C626.874451,429.687164 625.907349,431.889801 625.074036,435.266693 
	C623.182739,432.961090 622.124695,431.933136 621.375977,430.715088 
	C617.254822,424.010468 612.906006,417.419891 609.229248,410.475739 
	C606.010437,404.396454 602.187317,400.871124 594.646301,401.885040 
	C590.364258,402.460785 588.641113,403.195801 588.712646,408.003723 
	C588.924988,422.297485 588.516113,436.600464 587.721924,451.239990 
	C587.275818,453.966949 585.234924,456.946716 589.597778,459.103119 
	C590.242920,459.166779 590.888123,459.230469 591.206848,460.102966 
	C590.494019,461.796631 589.781189,463.490265 588.906311,465.569000 
	C593.885742,465.569000 598.163391,465.569000 602.777832,465.569000 
	C601.362671,463.173676 600.212402,461.226685 599.829834,458.943512 
M554.611694,238.500214 
	C554.616333,192.177383 554.877014,145.851929 554.403442,99.534012 
	C554.311890,90.574860 552.962402,80.937904 549.407043,72.836357 
	C539.362610,49.948441 518.265381,36.208637 491.958160,36.183598 
	C451.636932,36.145222 411.315399,36.046440 370.994568,36.166023 
	C348.852417,36.231689 326.644531,35.711468 304.586426,37.216267 
	C275.339203,39.211502 250.919464,65.246841 250.779114,96.127609 
	C250.501984,157.114914 250.673325,218.104385 250.714188,279.092926 
	C250.722183,291.020294 253.144394,302.257416 259.700500,312.571075 
	C270.635071,329.772736 285.944794,340.281128 306.302887,340.772980 
	C340.932556,341.609619 375.592682,341.229431 410.240112,341.274780 
	C438.723755,341.312073 467.210358,341.464020 495.690460,341.126068 
	C524.461792,340.784668 552.453735,317.520355 554.012268,284.915894 
	C554.734802,269.802338 554.443420,254.640289 554.611694,238.500214 
M105.451447,415.728210 
	C99.897644,429.931671 94.343834,444.135132 88.496078,459.090363 
	C92.381424,459.090363 95.550117,459.425537 98.592941,458.952026 
	C100.165245,458.707306 102.565269,457.216583 102.791245,455.964081 
	C104.133621,448.523712 108.720612,446.857880 115.375359,447.812256 
	C117.657738,448.139587 120.041847,448.023010 122.354019,447.819763 
	C126.632095,447.443665 129.257965,448.781311 130.215363,453.383759 
	C130.633728,455.394958 132.262787,458.395691 133.783188,458.693298 
	C137.666046,459.453278 141.796814,458.946533 146.228912,458.946533 
	C142.829468,449.859558 139.771057,441.560394 136.620316,433.296417 
	C133.380157,424.797852 129.877609,416.394836 126.835724,407.827240 
	C125.431084,403.871033 123.572639,401.763153 118.995918,401.962769 
	C110.317520,402.341187 109.537323,400.872498 107.545052,410.440277 
	C107.216560,412.017853 106.375168,413.488678 105.451447,415.728210 
M631.636169,460.999359 
	C628.784241,461.578430 625.932251,462.157501 622.245605,462.906036 
	C625.672791,467.790527 629.517761,467.191833 632.938049,466.864563 
	C635.639404,466.606110 640.539185,469.041504 640.524109,464.309631 
	C640.509705,459.773193 635.619446,461.289459 631.636169,460.999359 
z"/>
<path fill="#351557" opacity="1.000000" stroke="none" 
	d="
M554.611694,239.000214 
	C554.443420,254.640289 554.734802,269.802338 554.012268,284.915894 
	C552.453735,317.520355 524.461792,340.784668 495.690460,341.126068 
	C467.210358,341.464020 438.723755,341.312073 410.240112,341.274780 
	C375.592682,341.229431 340.932556,341.609619 306.302887,340.772980 
	C285.944794,340.281128 270.635071,329.772736 259.700500,312.571075 
	C253.144394,302.257416 250.722183,291.020294 250.714188,279.092926 
	C250.673325,218.104385 250.501984,157.114914 250.779114,96.127609 
	C250.919464,65.246841 275.339203,39.211502 304.586426,37.216267 
	C326.644531,35.711468 348.852417,36.231689 370.994568,36.166023 
	C411.315399,36.046440 451.636932,36.145222 491.958160,36.183598 
	C518.265381,36.208637 539.362610,49.948441 549.407043,72.836357 
	C552.962402,80.937904 554.311890,90.574860 554.403442,99.534012 
	C554.877014,145.851929 554.616333,192.177383 554.611694,239.000214 
M427.569702,229.319046 
	C427.595123,226.858704 427.620514,224.398346 428.139465,221.428726 
	C463.068115,201.203796 497.996796,180.978867 533.882080,160.200027 
	C475.340179,126.352112 417.820374,93.095146 360.126740,59.737667 
	C359.643280,60.839916 359.288422,61.270954 359.289154,61.701401 
	C359.329590,86.189194 359.399658,110.676926 358.890747,135.648819 
	C354.687103,137.212112 350.505035,138.836670 346.275330,140.325912 
	C337.485992,143.420547 334.015289,148.163177 334.009979,157.411697 
	C333.993866,185.378143 334.002563,213.344604 334.001587,241.311050 
	C334.001526,243.033249 334.001556,244.755447 334.001556,246.244125 
	C333.015991,246.500885 332.833710,246.614670 332.703918,246.571320 
	C331.917480,246.308624 331.153717,245.975693 330.362915,245.728577 
	C315.781311,241.172150 301.669220,241.970062 288.796478,250.607071 
	C278.163239,257.741516 278.416901,270.204987 288.836273,277.531281 
	C302.716766,287.291199 324.901611,287.562866 338.875031,278.084808 
	C344.749054,274.100525 347.990997,268.835266 347.925751,261.379700 
	C347.730469,239.074829 347.854828,216.767166 347.857910,194.460587 
	C347.859070,186.000565 347.860443,185.991272 356.056580,183.379410 
	C356.998596,183.079224 357.996094,182.953094 358.982269,183.699432 
	C359.080719,186.221436 359.179169,188.743439 359.238220,192.153885 
	C359.238220,214.396484 359.238220,236.639099 359.238220,260.062866 
	C362.220398,258.770752 363.880371,258.219788 365.376312,257.377441 
	C381.318237,248.400864 397.234161,239.378128 413.174133,231.252884 
	C413.418091,232.841248 413.662018,234.429596 413.829895,236.950668 
	C413.829895,246.557526 413.829895,256.164368 413.829895,265.830200 
	C409.530334,266.273804 405.839966,266.317230 402.303589,267.077240 
	C386.145050,270.549744 373.068420,278.396942 366.987427,294.573639 
	C363.125854,304.846130 369.073914,313.890137 380.057129,315.016449 
	C398.636719,316.921722 412.584076,308.605835 422.829468,293.859497 
	C425.406494,290.150299 426.852356,284.941132 426.978119,280.370667 
	C427.440369,263.569519 427.128967,246.747086 427.569702,229.319046 
z"/>
<path fill="#3B1C5C" opacity="1.000000" stroke="none" 
	d="
M591.533264,459.294159 
	C590.888123,459.230469 590.242920,459.166779 589.171265,458.614471 
	C588.613159,455.717163 588.481628,453.308502 588.350098,450.899841 
	C588.516113,436.600464 588.924988,422.297485 588.712646,408.003723 
	C588.641113,403.195801 590.364258,402.460785 594.646301,401.885040 
	C602.187317,400.871124 606.010437,404.396454 609.229248,410.475739 
	C612.906006,417.419891 617.254822,424.010468 621.375977,430.715088 
	C622.124695,431.933136 623.182739,432.961090 625.074036,435.266693 
	C625.907349,431.889801 626.874451,429.687164 626.920654,427.465393 
	C627.065857,420.480225 627.000854,413.483002 626.751160,406.499969 
	C626.577759,401.653442 629.978333,402.275635 632.854797,402.183655 
	C635.559326,402.097137 638.904968,401.266510 638.902222,405.842468 
	C638.891846,423.290222 638.897949,440.738007 638.897949,459.014923 
	C633.616394,459.014923 628.535278,459.185394 623.483887,458.873810 
	C622.449707,458.809967 621.278870,457.080963 620.592712,455.878815 
	C615.676819,447.266388 610.914490,438.566284 605.989319,429.959320 
	C605.053223,428.323517 603.609680,426.978210 601.205017,425.826599 
	C601.068665,427.526672 600.817749,429.226593 600.815552,430.926849 
	C600.805664,438.744049 600.922607,446.561829 600.850708,454.378113 
	C600.836731,455.902893 600.186523,457.421875 599.060303,458.979980 
	C596.038208,459.109009 593.785767,459.201569 591.533264,459.294159 
z"/>
<path fill="#3C1D5C" opacity="1.000000" stroke="none" 
	d="
M373.934753,458.353943 
	C364.387817,453.825317 357.633850,447.163147 356.063232,436.110474 
	C354.302551,423.720673 359.597321,411.179749 371.464722,404.762207 
	C382.840302,398.610657 396.434540,399.995667 405.571564,409.723846 
	C414.451233,419.178101 416.584259,429.550293 412.246033,442.141388 
	C410.243530,445.183167 408.815308,447.886841 406.807343,450.053009 
	C397.691376,459.887177 386.443970,461.725311 373.934753,458.353943 
M386.402374,447.067383 
	C393.701172,446.400787 399.506287,442.257935 401.224243,436.489655 
	C403.032257,430.419037 400.542603,421.605103 395.589539,417.879791 
	C389.988617,413.667236 383.806946,412.591461 377.329865,415.861023 
	C370.841248,419.136383 367.466003,426.749573 369.097992,434.047119 
	C370.949890,442.327942 376.059113,446.375275 386.402374,447.067383 
z"/>
<path fill="#3C1D5D" opacity="1.000000" stroke="none" 
	d="
M453.126099,459.771362 
	C449.167053,457.325897 444.714600,455.411407 441.370636,452.304016 
	C436.931091,448.178528 438.093719,445.038727 443.696838,442.967285 
	C448.514709,441.186157 452.418427,441.263397 457.073883,444.583160 
	C460.123962,446.758118 465.239105,446.316315 469.442993,446.405884 
	C470.551056,446.429535 472.799622,443.863495 472.604340,442.860474 
	C472.262207,441.103333 470.738251,438.752808 469.172119,438.214783 
	C464.792603,436.710114 460.137146,436.010254 455.593079,434.981995 
	C453.969360,434.614563 452.320038,434.318695 450.738403,433.814514 
	C443.716553,431.576050 440.820679,428.222595 440.431549,422.015289 
	C439.918152,413.825043 443.129425,407.074829 449.047394,404.395325 
	C459.042236,399.870026 468.951202,399.097534 478.108002,406.278625 
	C480.698517,408.310242 482.569550,411.259338 485.455566,414.574493 
	C481.285645,416.227509 478.158569,417.696381 474.880432,418.640869 
	C473.750519,418.966370 471.816772,418.396851 470.982758,417.530792 
	C467.084137,413.482178 462.254761,413.566315 457.483521,414.528931 
	C455.824341,414.863708 453.397614,417.106903 453.407593,418.463074 
	C453.418488,419.943695 455.590973,422.148834 457.273560,422.731018 
	C461.481049,424.186890 465.913208,425.072876 470.311279,425.883453 
	C482.743469,428.174622 488.653381,436.953186 484.103394,448.996521 
	C480.334473,454.817383 475.192749,457.189056 469.401031,459.256866 
	C463.804077,461.255066 458.556519,460.177002 453.126099,459.771362 
z"/>
<path fill="#3B1C5B" opacity="1.000000" stroke="none" 
	d="
M244.853989,453.038788 
	C244.919022,452.268219 244.984055,451.497681 245.194778,450.015747 
	C245.431503,433.848053 245.522537,418.391693 245.613556,402.935364 
	C257.927094,402.093292 270.395935,399.516846 282.027740,406.230713 
	C290.456421,411.095764 296.200897,421.784088 294.543976,431.951599 
	C294.080505,434.795471 293.875488,437.681488 293.254089,441.134216 
	C289.555450,448.471252 284.789642,454.036285 277.583160,456.629913 
	C266.856812,460.490387 255.755325,459.379761 244.717468,458.077179 
	C244.792633,457.605591 244.867798,457.134033 245.093597,456.131348 
	C245.114166,454.746399 244.984085,453.892609 244.853989,453.038788 
M268.740173,413.398315 
	C267.251190,413.276855 265.763763,413.076050 264.273010,413.047424 
	C257.132385,412.910278 257.270905,412.925385 257.346283,420.087585 
	C257.419678,427.059540 257.536346,434.066650 256.939331,440.998474 
	C256.487152,446.248718 258.381226,449.146667 263.555542,448.831726 
	C265.363403,448.721680 267.154602,448.236267 268.938690,447.853668 
	C277.904816,445.930695 282.560913,440.424744 282.697113,431.621857 
	C282.843292,422.178406 278.219513,415.846130 268.740173,413.398315 
z"/>
<path fill="#3C1D5D" opacity="1.000000" stroke="none" 
	d="
M105.611130,415.368530 
	C106.375168,413.488678 107.216560,412.017853 107.545052,410.440277 
	C109.537323,400.872498 110.317520,402.341187 118.995918,401.962769 
	C123.572639,401.763153 125.431084,403.871033 126.835724,407.827240 
	C129.877609,416.394836 133.380157,424.797852 136.620316,433.296417 
	C139.771057,441.560394 142.829468,449.859558 146.228912,458.946533 
	C141.796814,458.946533 137.666046,459.453278 133.783188,458.693298 
	C132.262787,458.395691 130.633728,455.394958 130.215363,453.383759 
	C129.257965,448.781311 126.632095,447.443665 122.354019,447.819763 
	C120.041847,448.023010 117.657738,448.139587 115.375359,447.812256 
	C108.720612,446.857880 104.133621,448.523712 102.791245,455.964081 
	C102.565269,457.216583 100.165245,458.707306 98.592941,458.952026 
	C95.550117,459.425537 92.381424,459.090363 88.496078,459.090363 
	C94.343834,444.135132 99.897644,429.931671 105.611130,415.368530 
M114.691536,425.263824 
	C113.471939,428.471344 112.252350,431.678833 110.836823,435.401642 
	C113.117683,436.155945 114.901428,437.103851 116.762360,437.293243 
	C122.048721,437.831238 123.905319,435.414825 121.796822,430.639557 
	C120.490356,427.680725 118.594963,424.981964 116.710800,421.729492 
	C115.928429,422.999542 115.440567,423.791504 114.691536,425.263824 
z"/>
<path fill="#3C1E5D" opacity="1.000000" stroke="none" 
	d="
M677.235107,424.042694 
	C674.446411,431.546570 675.758179,439.181732 680.465637,442.845703 
	C687.362244,448.213593 696.221863,448.583679 702.973511,443.785767 
	C707.719299,440.413330 708.655212,440.606445 715.802246,447.017120 
	C711.401184,453.841003 705.310608,457.520142 697.908142,459.235840 
	C687.259521,461.703827 678.380798,457.957977 670.238647,451.512299 
	C661.162781,440.795898 660.366760,429.073914 666.636475,416.902496 
	C671.438965,407.579437 679.637634,402.300995 689.900208,401.224731 
	C700.710632,400.091034 709.637390,404.202057 716.037720,413.997559 
	C712.096436,416.407135 708.072632,418.152618 704.048889,419.898132 
	C700.510742,415.046021 695.480408,413.916077 689.172302,414.233429 
	C687.730286,414.609283 686.992493,414.968445 686.254700,415.327576 
	C685.286255,415.705902 684.317810,416.084259 682.836609,416.751190 
	C681.201111,418.356018 680.078369,419.672211 678.955566,420.988403 
	C678.955566,420.988403 678.689758,421.107178 678.380310,421.402710 
	C677.792297,422.479767 677.513733,423.261230 677.235107,424.042694 
z"/>
<path fill="#3C1E5D" opacity="1.000000" stroke="none" 
	d="
M176.110077,451.786560 
	C171.972229,446.395691 170.650543,440.334473 170.973450,433.568268 
	C171.361435,425.438202 171.109695,417.276978 171.110504,409.129242 
	C171.111176,402.430023 172.259613,401.311523 178.859406,401.794556 
	C180.008041,401.878632 181.143051,402.148773 182.983612,402.445862 
	C182.983612,410.511749 182.893341,418.584625 183.022232,426.654022 
	C183.085312,430.603485 182.935883,434.719727 183.979767,438.453796 
	C185.779633,444.892059 192.315826,448.641846 198.569977,447.673218 
	C204.493088,446.755890 209.065475,441.123718 209.130920,434.443359 
	C209.214005,425.963776 209.185944,417.482941 209.179413,409.002655 
	C209.174103,402.101013 209.558731,401.685211 216.415634,401.867279 
	C217.862823,401.905670 219.304825,402.139191 220.863297,402.294159 
	C220.863297,414.554565 220.863297,426.428101 220.729645,438.858490 
	C220.581619,439.968506 220.567245,440.521637 220.552872,441.074799 
	C220.362473,441.486145 220.172058,441.897491 219.704681,442.846558 
	C215.223557,452.769012 208.128555,458.453064 197.866943,459.742493 
	C189.329895,460.815155 182.420486,457.019470 176.110077,451.786560 
z"/>
<path fill="#3D1F5E" opacity="1.000000" stroke="none" 
	d="
M531.968872,459.304138 
	C531.343201,457.983887 530.032837,456.571075 530.196960,455.357666 
	C532.005981,441.981079 527.366882,430.701569 519.732544,420.078064 
	C516.029419,414.924988 513.241089,409.114502 509.969513,403.482697 
	C519.252625,400.103851 522.607727,401.681427 528.210144,411.233978 
	C530.079895,414.422058 531.956726,417.609558 533.949158,420.721222 
	C536.144470,424.149658 538.442688,424.215790 540.632874,420.835846 
	C542.964355,417.237762 545.698547,413.726746 547.154297,409.771851 
	C550.021912,401.981110 552.642944,401.221466 563.171997,402.518127 
	C562.488342,403.957611 561.979187,405.282135 561.267517,406.487061 
	C556.867004,413.937622 552.786438,421.613983 547.877563,428.716248 
	C543.744995,434.695251 542.546875,440.956329 542.848206,447.968536 
	C543.004578,451.609039 542.175903,455.291931 540.973877,459.022217 
	C537.426575,459.160583 534.697754,459.232361 531.968872,459.304138 
z"/>
<path fill="#402260" opacity="1.000000" stroke="none" 
	d="
M321.950409,459.323517 
	C321.098175,457.569244 319.511353,455.816223 319.508362,454.060547 
	C319.481293,438.091614 319.653839,422.120911 319.941833,406.153809 
	C320.037872,400.830536 324.392914,402.490356 327.427185,402.076721 
	C331.174072,401.565948 331.858215,403.851379 331.841064,406.814575 
	C331.780060,417.350555 331.715698,427.886566 331.656586,438.422546 
	C331.619141,445.096649 331.588745,451.770813 330.831360,458.728943 
	C327.388458,459.116486 324.669434,459.220001 321.950409,459.323517 
z"/>
<path fill="#E1DDE8" opacity="1.000000" stroke="none" 
	d="
M244.496460,458.294617 
	C255.755325,459.379761 266.856812,460.490387 277.583160,456.629913 
	C284.789642,454.036285 289.555450,448.471252 293.220856,441.498291 
	C292.510254,456.377533 288.223816,461.100006 276.690369,465.487335 
	C271.298920,467.538239 264.660675,466.311523 258.244110,465.948914 
	C256.935211,465.555756 255.969757,465.784027 255.004288,466.012329 
	C251.133789,466.012329 247.263290,466.012329 243.348419,466.012329 
	C243.720810,462.999420 243.998123,460.755737 244.496460,458.294617 
z"/>
<path fill="#E5E0EB" opacity="1.000000" stroke="none" 
	d="
M670.162598,451.922272 
	C678.380798,457.957977 687.259521,461.703827 697.908142,459.235840 
	C705.310608,457.520142 711.401184,453.841003 715.995972,447.297089 
	C719.161926,448.519226 719.842834,450.452576 717.355591,453.159363 
	C716.375977,454.225494 715.637695,455.538696 714.913818,456.810150 
	C711.583069,462.660126 706.515930,465.643005 699.428406,465.685303 
	C698.477478,464.601166 697.958435,463.893402 697.439331,463.185638 
	C696.956299,464.438080 696.473267,465.690491 695.990234,466.942932 
	C693.585632,466.953369 691.181091,466.963776 688.384521,466.586700 
	C687.762268,465.262848 687.531860,464.326508 687.301514,463.390137 
	C687.037598,463.409424 686.773682,463.428711 686.509766,463.447968 
	C686.331848,464.318054 686.153870,465.188110 685.975952,466.058197 
	C679.391052,467.046082 675.265442,462.362793 670.828491,458.951660 
	C669.606873,458.012482 670.281860,454.606384 670.162598,451.922272 
z"/>
<path fill="#E2DEEA" opacity="1.000000" stroke="none" 
	d="
M176.058319,452.188538 
	C182.420486,457.019470 189.329895,460.815155 197.866943,459.742493 
	C208.128555,458.453064 215.223557,452.769012 219.706390,443.190063 
	C220.622986,448.967316 214.551819,462.538391 209.494431,464.481201 
	C201.994080,467.362610 194.102066,468.404572 186.219986,465.523193 
	C183.924301,464.684021 181.650635,463.720520 179.497116,462.570190 
	C175.349228,460.354523 174.282150,456.927643 176.058319,452.188538 
z"/>
<path fill="#E1DDE8" opacity="1.000000" stroke="none" 
	d="
M373.918121,458.713745 
	C386.443970,461.725311 397.691376,459.887177 406.807343,450.053009 
	C408.815308,447.886841 410.243530,445.183167 412.194611,442.498810 
	C413.780457,448.202881 411.660309,452.537720 405.892334,455.850403 
	C402.223114,458.190613 398.921631,459.928955 395.891357,462.054016 
	C394.627747,462.940094 393.941437,464.649445 392.992676,465.984436 
	C384.815765,468.700958 372.936920,466.764832 370.264252,462.308289 
	C371.480133,461.226959 372.690826,460.150269 373.918121,458.713745 
z"/>
<path fill="#E5E2EC" opacity="1.000000" stroke="none" 
	d="
M452.973633,460.094727 
	C458.556519,460.177002 463.804077,461.255066 469.401031,459.256866 
	C475.192749,457.189056 480.334473,454.817383 484.047394,449.368347 
	C483.899292,451.253754 483.716339,453.421783 482.982758,455.383942 
	C482.367218,457.030212 481.212860,458.517090 480.110352,459.928741 
	C478.681000,461.758942 477.201141,464.792999 475.508636,464.962097 
	C467.586334,465.753357 459.584015,465.757629 451.608368,465.970947 
	C451.034058,465.986359 450.414093,465.471069 449.875732,465.111969 
	C449.637238,464.952942 449.549347,464.568085 449.169281,463.881165 
	C450.332092,462.778473 451.576630,461.598267 452.973633,460.094727 
z"/>
<path fill="#E5E2EC" opacity="1.000000" stroke="none" 
	d="
M632.083862,460.999084 
	C635.619446,461.289459 640.509705,459.773193 640.524109,464.309631 
	C640.539185,469.041504 635.639404,466.606110 632.938049,466.864563 
	C629.517761,467.191833 625.672791,467.790527 622.245605,462.906036 
	C625.932251,462.157501 628.784241,461.578430 632.083862,460.999084 
z"/>
<path fill="#E1DDE8" opacity="1.000000" stroke="none" 
	d="
M245.243362,403.061401 
	C245.522537,418.391693 245.431503,433.848053 245.107361,449.636322 
	C244.577118,448.897644 244.025589,447.827972 244.021484,446.756226 
	C243.969101,433.136261 243.978851,419.515869 244.038986,405.895874 
	C244.042984,404.991852 244.582657,404.090179 245.243362,403.061401 
z"/>
<path fill="#E1DDE8" opacity="1.000000" stroke="none" 
	d="
M704.055115,420.240540 
	C708.072632,418.152618 712.096436,416.407135 716.215332,414.306335 
	C719.521057,416.281799 718.135803,418.055908 715.813538,420.094208 
	C713.295532,422.304291 711.163452,424.950012 708.694275,427.222290 
	C707.888000,427.964264 706.552124,428.130676 705.458435,428.560303 
	C705.149719,427.430206 704.746704,426.315796 704.555359,425.166138 
	C704.303589,423.652924 704.218262,422.111969 704.055115,420.240540 
z"/>
<path fill="#EEECF2" opacity="1.000000" stroke="none" 
	d="
M531.956543,459.676666 
	C534.697754,459.232361 537.426575,459.160583 540.594849,459.212738 
	C542.245056,461.488953 543.455811,463.641235 545.309082,466.935577 
	C540.571167,466.396576 536.378967,466.093323 532.308960,465.220520 
	C531.839294,465.119781 532.049255,461.849792 531.956543,459.676666 
z"/>
<path fill="#DBD6E2" opacity="1.000000" stroke="none" 
	d="
M591.370056,459.698547 
	C593.785767,459.201569 596.038208,459.109009 598.676392,459.148071 
	C600.212402,461.226685 601.362671,463.173676 602.777832,465.569000 
	C598.163391,465.569000 593.885742,465.569000 588.906311,465.569000 
	C589.781189,463.490265 590.494019,461.796631 591.370056,459.698547 
z"/>
<path fill="#E9E6EF" opacity="1.000000" stroke="none" 
	d="
M393.392212,465.990540 
	C393.941437,464.649445 394.627747,462.940094 395.891357,462.054016 
	C398.921631,459.928955 402.223114,458.190613 405.738586,456.154816 
	C407.750305,460.940826 403.248413,462.050720 400.708160,463.945465 
	C398.899139,465.294800 396.131531,465.358917 393.392212,465.990540 
z"/>
<path fill="#E5E2EC" opacity="1.000000" stroke="none" 
	d="
M321.956116,459.723633 
	C324.669434,459.220001 327.388458,459.116486 330.560608,459.041992 
	C331.009918,459.801361 331.006104,460.531647 330.617889,461.630524 
	C328.988586,462.111053 327.743652,462.223022 326.313049,462.351715 
	C326.586609,463.776642 326.796600,464.870514 327.006592,465.964386 
	C322.264923,466.660614 321.729828,463.723450 321.956116,459.723633 
z"/>
<path fill="#E1DDE8" opacity="1.000000" stroke="none" 
	d="
M327.425110,465.982941 
	C326.796600,464.870514 326.586609,463.776642 326.313049,462.351715 
	C327.743652,462.223022 328.988586,462.111053 330.626221,461.995667 
	C331.994415,462.918152 332.969940,463.844086 333.945465,464.770020 
	C333.792694,465.180511 333.639923,465.591003 333.487183,466.001495 
	C331.605988,466.001495 329.724792,466.001495 327.425110,465.982941 
z"/>
<path fill="#DBD6E2" opacity="1.000000" stroke="none" 
	d="
M588.036011,451.069916 
	C588.481628,453.308502 588.613159,455.717163 588.849426,458.569580 
	C585.234924,456.946716 587.275818,453.966949 588.036011,451.069916 
z"/>
<path fill="#E1DDE8" opacity="1.000000" stroke="none" 
	d="
M696.326355,466.958435 
	C696.473267,465.690491 696.956299,464.438080 697.439331,463.185638 
	C697.958435,463.893402 698.477478,464.601166 699.013184,465.689880 
	C698.240662,466.371857 697.451599,466.672882 696.326355,466.958435 
z"/>
<path fill="#E1DDE8" opacity="1.000000" stroke="none" 
	d="
M679.305054,420.982666 
	C680.078369,419.672211 681.201111,418.356018 682.658569,417.012268 
	C681.880371,418.315460 680.767456,419.646179 679.305054,420.982666 
z"/>
<path fill="#E1DDE8" opacity="1.000000" stroke="none" 
	d="
M686.156372,466.285278 
	C686.153870,465.188110 686.331848,464.318054 686.509766,463.447968 
	C686.773682,463.428711 687.037598,463.409424 687.301514,463.390137 
	C687.531860,464.326508 687.762268,465.262848 687.989868,466.557373 
	C687.437012,466.781097 686.886963,466.646729 686.156372,466.285278 
z"/>
<path fill="#E1DDE8" opacity="1.000000" stroke="none" 
	d="
M244.609589,453.206177 
	C244.984085,453.892609 245.114166,454.746399 245.031250,455.777710 
	C244.667252,455.094666 244.516235,454.234100 244.609589,453.206177 
z"/>
<path fill="#E2DEEA" opacity="1.000000" stroke="none" 
	d="
M255.378845,466.016357 
	C255.969757,465.784027 256.935211,465.555756 257.950958,465.661743 
	C257.251953,466.004181 256.502686,466.012299 255.378845,466.016357 
z"/>
<path fill="#E2DEEA" opacity="1.000000" stroke="none" 
	d="
M220.806076,441.012695 
	C220.567245,440.521637 220.581619,439.968506 220.796478,439.207306 
	C221.017715,439.649719 221.038498,440.300140 220.806076,441.012695 
z"/>
<path fill="#E1DDE8" opacity="1.000000" stroke="none" 
	d="
M686.572266,415.509277 
	C686.992493,414.968445 687.730286,414.609283 688.768555,414.355042 
	C688.342712,414.870270 687.616272,415.280579 686.572266,415.509277 
z"/>
<path fill="#E1DDE8" opacity="1.000000" stroke="none" 
	d="
M677.582397,423.962006 
	C677.513733,423.261230 677.792297,422.479767 678.360352,421.546936 
	C678.409851,422.224152 678.169800,423.052734 677.582397,423.962006 
z"/>
<path fill="#E24179" opacity="1.000000" stroke="none" 
	d="
M358.967865,182.746246 
	C357.996094,182.953094 356.998596,183.079224 356.056580,183.379410 
	C347.860443,185.991272 347.859070,186.000565 347.857910,194.460587 
	C347.854828,216.767166 347.730469,239.074829 347.925751,261.379700 
	C347.990997,268.835266 344.749054,274.100525 338.875031,278.084808 
	C324.901611,287.562866 302.716766,287.291199 288.836273,277.531281 
	C278.416901,270.204987 278.163239,257.741516 288.796478,250.607071 
	C301.669220,241.970062 315.781311,241.172150 330.362915,245.728577 
	C331.153717,245.975693 331.917480,246.308624 332.703918,246.571320 
	C332.833710,246.614670 333.015991,246.500885 334.001556,246.244125 
	C334.001556,244.755447 334.001526,243.033249 334.001587,241.311050 
	C334.002563,213.344604 333.993866,185.378143 334.009979,157.411697 
	C334.015289,148.163177 337.485992,143.420547 346.275330,140.325912 
	C350.505035,138.836670 354.687103,137.212112 359.541168,135.380676 
	C365.467957,133.382431 370.744293,131.652328 376.395142,129.906982 
	C386.272827,126.819878 395.785522,123.777054 405.276978,120.669220 
	C418.650299,116.290306 427.123047,122.410652 427.161987,136.591965 
	C427.221924,158.416046 427.231049,180.240265 427.062683,202.351547 
	C422.489807,205.107468 418.115967,207.576263 413.739990,209.569809 
	C413.762512,197.118088 413.854248,185.141220 413.781891,173.165344 
	C413.748657,167.662323 410.997162,164.976166 406.566010,166.392532 
	C396.289337,169.677353 386.126801,173.319168 375.519196,176.823944 
	C369.736206,178.803146 364.352020,180.774689 358.967865,182.746246 
z"/>
<path fill="#936ACD" opacity="1.000000" stroke="none" 
	d="
M413.742096,210.045059 
	C418.115967,207.576263 422.489807,205.107468 427.397705,202.293457 
	C447.120667,190.988449 466.314362,180.036987 485.495087,169.062866 
	C490.178925,166.383026 494.820221,163.628830 500.719543,160.186066 
	C458.727814,135.861618 417.892761,112.207199 376.020660,87.952057 
	C376.020660,102.804176 376.020660,116.363205 376.020660,129.922226 
	C370.744293,131.652328 365.467957,133.382431 359.829193,135.138611 
	C359.399658,110.676926 359.329590,86.189194 359.289154,61.701401 
	C359.288422,61.270954 359.643280,60.839916 360.126740,59.737667 
	C417.820374,93.095146 475.340179,126.352112 533.882080,160.200027 
	C497.996796,180.978867 463.068115,201.203796 427.554993,221.708923 
	C422.366119,224.782104 417.761688,227.575089 413.157227,230.368073 
	C397.234161,239.378128 381.318237,248.400864 365.376312,257.377441 
	C363.880371,258.219788 362.220398,258.770752 359.238220,260.062866 
	C359.238220,236.639099 359.238220,214.396484 359.595825,191.586456 
	C365.251770,189.397018 370.550049,187.775009 375.878265,186.607971 
	C375.908173,201.636002 375.908173,216.209061 375.908173,232.465317 
	C389.347198,224.501404 401.544647,217.273239 413.742096,210.045059 
z"/>
<path fill="#E24179" opacity="1.000000" stroke="none" 
	d="
M427.108673,229.932648 
	C427.128967,246.747086 427.440369,263.569519 426.978119,280.370667 
	C426.852356,284.941132 425.406494,290.150299 422.829468,293.859497 
	C412.584076,308.605835 398.636719,316.921722 380.057129,315.016449 
	C369.073914,313.890137 363.125854,304.846130 366.987427,294.573639 
	C373.068420,278.396942 386.145050,270.549744 402.303589,267.077240 
	C405.839966,266.317230 409.530334,266.273804 413.829895,265.830200 
	C413.829895,256.164368 413.829895,246.557526 414.195679,236.349152 
	C418.743866,233.809311 422.926270,231.870987 427.108673,229.932648 
z"/>
<path fill="#573488" opacity="1.000000" stroke="none" 
	d="
M375.848389,186.152985 
	C370.550049,187.775009 365.251770,189.397018 359.615540,191.142242 
	C359.179169,188.743439 359.080719,186.221436 358.975067,183.222839 
	C364.352020,180.774689 369.736206,178.803146 375.542480,177.294327 
	C375.925812,180.555679 375.887085,183.354340 375.848389,186.152985 
z"/>
<path fill="#C81255" opacity="1.000000" stroke="none" 
	d="
M427.339172,229.625854 
	C422.926270,231.870987 418.743866,233.809311 414.233704,235.882782 
	C413.662018,234.429596 413.418091,232.841248 413.165680,230.810486 
	C417.761688,227.575089 422.366119,224.782104 427.308228,221.963562 
	C427.620514,224.398346 427.595123,226.858704 427.339172,229.625854 
z"/>
<path fill="#FAF9FB" opacity="1.000000" stroke="none" 
	d="
M385.970123,447.068787 
	C376.059113,446.375275 370.949890,442.327942 369.097992,434.047119 
	C367.466003,426.749573 370.841248,419.136383 377.329865,415.861023 
	C383.806946,412.591461 389.988617,413.667236 395.589539,417.879791 
	C400.542603,421.605103 403.032257,430.419037 401.224243,436.489655 
	C399.506287,442.257935 393.701172,446.400787 385.970123,447.068787 
z"/>
<path fill="#F7F6F9" opacity="1.000000" stroke="none" 
	d="
M269.146484,413.509399 
	C278.219513,415.846130 282.843292,422.178406 282.697113,431.621857 
	C282.560913,440.424744 277.904816,445.930695 268.938690,447.853668 
	C267.154602,448.236267 265.363403,448.721680 263.555542,448.831726 
	C258.381226,449.146667 256.487152,446.248718 256.939331,440.998474 
	C257.536346,434.066650 257.419678,427.059540 257.346283,420.087585 
	C257.270905,412.925385 257.132385,412.910278 264.273010,413.047424 
	C265.763763,413.076050 267.251190,413.276855 269.146484,413.509399 
z"/>
<path fill="#E9E6EF" opacity="1.000000" stroke="none" 
	d="
M114.822121,424.923645 
	C115.440567,423.791504 115.928429,422.999542 116.710800,421.729492 
	C118.594963,424.981964 120.490356,427.680725 121.796822,430.639557 
	C123.905319,435.414825 122.048721,437.831238 116.762360,437.293243 
	C114.901428,437.103851 113.117683,436.155945 110.836823,435.401642 
	C112.252350,431.678833 113.471939,428.471344 114.822121,424.923645 
z"/>
<path fill="#371658" opacity="1.000000" stroke="none" 
	d="
M376.395142,129.906982 
	C376.020660,116.363205 376.020660,102.804176 376.020660,87.952057 
	C417.892761,112.207199 458.727814,135.861618 500.719543,160.186066 
	C494.820221,163.628830 490.178925,166.383026 485.495087,169.062866 
	C466.314362,180.036987 447.120667,190.988449 427.596741,202.006348 
	C427.231049,180.240265 427.221924,158.416046 427.161987,136.591965 
	C427.123047,122.410652 418.650299,116.290306 405.276978,120.669220 
	C395.785522,123.777054 386.272827,126.819878 376.395142,129.906982 
z"/>
<path fill="#371558" opacity="1.000000" stroke="none" 
	d="
M375.878296,186.607971 
	C375.887085,183.354340 375.925812,180.555679 375.941284,177.286652 
	C386.126801,173.319168 396.289337,169.677353 406.566010,166.392532 
	C410.997162,164.976166 413.748657,167.662323 413.781891,173.165344 
	C413.854248,185.141220 413.762512,197.118088 413.739990,209.569809 
	C401.544647,217.273239 389.347198,224.501404 375.908173,232.465317 
	C375.908173,216.209061 375.908173,201.636002 375.878296,186.607971 
z"/>
</svg>