<svg xmlns="http://www.w3.org/2000/svg" width="100%" height="100%" viewBox="0 0 100 100">
<g>
  <svg version="1.1" id="Layer_1" xmlns="http://www.w3.org/2000/svg" xmlns:xlink="http://www.w3.org/1999/xlink" x="0px" y="0px"
	 width="100%" viewBox="0 0 367 347" enable-background="new 0 0 367 347" xml:space="preserve">
<path fill="#FEFEFE" opacity="1.000000" stroke="none" fill-opacity="0.0"
	d="
M213.000000,348.000000 
	C142.000015,348.000000 71.500023,348.000000 1.000028,348.000000 
	C1.000019,232.333374 1.000019,116.666733 1.000009,1.000075 
	C123.333282,1.000050 245.666565,1.000050 367.999878,1.000025 
	C367.999939,116.666595 367.999939,232.333191 367.999969,347.999878 
	C316.500000,348.000000 265.000000,348.000000 213.000000,348.000000 
M77.685204,27.149416 
	C50.037968,34.424629 31.009102,57.436050 30.913719,86.327538 
	C30.718462,145.470215 30.815281,204.614029 30.894419,263.757233 
	C30.901716,269.209229 31.385626,274.694305 32.095337,280.105408 
	C34.360035,297.372162 43.595547,310.334778 57.549049,320.211548 
	C69.226662,328.477295 82.531738,330.330139 96.455185,330.311310 
	C154.087387,330.233398 211.719864,330.383026 269.352203,330.356171 
	C308.030182,330.338165 334.382568,304.984314 334.506073,267.289825 
	C334.701508,207.648788 334.662598,148.006439 334.504669,88.365242 
	C334.472748,76.322098 331.970947,64.924248 325.245972,54.329937 
	C314.797638,37.870007 300.175659,28.076603 281.144928,26.265244 
	C265.624298,24.787981 249.899643,25.244335 234.264816,25.217142 
	C187.122940,25.135149 139.980576,25.185837 92.838928,25.340641 
	C88.064362,25.356319 83.293266,26.428293 77.685204,27.149416 
z"/>
<path fill="#ffff" opacity="1.000000" stroke="none" 
	d="
M78.102882,27.079746 
	C83.293266,26.428293 88.064362,25.356319 92.838928,25.340641 
	C139.980576,25.185837 187.122940,25.135149 234.264816,25.217142 
	C249.899643,25.244335 265.624298,24.787981 281.144928,26.265244 
	C300.175659,28.076603 314.797638,37.870007 325.245972,54.329937 
	C331.970947,64.924248 334.472748,76.322098 334.504669,88.365242 
	C334.662598,148.006439 334.701508,207.648788 334.506073,267.289825 
	C334.382568,304.984314 308.030182,330.338165 269.352203,330.356171 
	C211.719864,330.383026 154.087387,330.233398 96.455185,330.311310 
	C82.531738,330.330139 69.226662,328.477295 57.549049,320.211548 
	C43.595547,310.334778 34.360035,297.372162 32.095337,280.105408 
	C31.385626,274.694305 30.901716,269.209229 30.894419,263.757233 
	C30.815281,204.614029 30.718462,145.470215 30.913719,86.327538 
	C31.009102,57.436050 50.037968,34.424629 78.102882,27.079746 
M193.828491,225.951950 
	C193.828491,235.556259 193.828491,245.160568 193.828491,254.815247 
	C189.864532,255.237701 186.533798,255.352264 183.301849,255.977524 
	C166.682510,259.192749 153.264694,267.016205 146.997360,283.567169 
	C143.041718,294.013306 149.357910,303.105804 160.534561,304.077911 
	C178.491058,305.639740 192.151352,297.737244 202.293884,283.689667 
	C205.118027,279.778168 206.797699,274.220367 206.954575,269.351837 
	C207.495605,252.561218 207.131622,235.741425 207.572327,218.318817 
	C207.596512,215.858673 207.620697,213.398529 208.139023,210.431000 
	C243.059082,190.201630 277.979156,169.972275 313.860535,149.186020 
	C255.295013,115.334290 197.706467,82.047256 139.472137,48.386967 
	C139.472137,74.562599 139.472137,99.359093 138.936646,124.669029 
	C134.738632,126.219551 130.562363,127.832367 126.338066,129.307617 
	C117.529526,132.383850 114.016426,137.145706 114.010857,146.348312 
	C113.993935,174.314957 114.003021,202.281601 114.001991,230.248245 
	C114.001930,231.982391 114.001984,233.716537 114.001984,235.179932 
	C113.070503,235.488464 112.887070,235.620865 112.760048,235.579590 
	C111.971695,235.323471 111.202766,235.007812 110.415115,234.749298 
	C97.125504,230.387726 84.142349,231.160614 71.761703,237.684738 
	C65.821617,240.814926 61.105160,245.442993 61.067986,252.779358 
	C61.030029,260.270752 65.590294,265.029816 71.775871,268.379028 
	C82.985352,274.448486 94.952057,275.851562 107.054993,272.279907 
	C121.068367,268.144501 128.704956,262.415436 128.044037,244.862732 
	C127.249115,223.751236 127.965714,202.585922 127.772385,181.446243 
	C127.730476,176.864044 129.219833,174.140503 133.688782,173.113663 
	C135.460205,172.706650 137.209610,172.203857 138.982666,172.698151 
	C139.080276,175.219879 139.177887,177.741592 139.236664,181.123932 
	C139.236664,203.372604 139.236664,225.621292 139.236664,248.735474 
	C141.736206,247.955170 143.038803,247.770630 144.113342,247.174805 
	C148.915451,244.512192 153.638031,241.706680 158.415894,238.999680 
	C169.987381,232.443604 181.573700,225.913712 193.168350,220.257996 
	C193.412933,221.845078 193.657532,223.432159 193.828491,225.951950 
z"/>
<path fill="#E1427A" opacity="1.000000" stroke="none" 
	d="
M138.969040,171.744690 
	C137.209610,172.203857 135.460205,172.706650 133.688782,173.113663 
	C129.219833,174.140503 127.730476,176.864044 127.772385,181.446243 
	C127.965714,202.585922 127.249115,223.751236 128.044037,244.862732 
	C128.704956,262.415436 121.068367,268.144501 107.054993,272.279907 
	C94.952057,275.851562 82.985352,274.448486 71.775871,268.379028 
	C65.590294,265.029816 61.030029,260.270752 61.067986,252.779358 
	C61.105160,245.442993 65.821617,240.814926 71.761703,237.684738 
	C84.142349,231.160614 97.125504,230.387726 110.415115,234.749298 
	C111.202766,235.007812 111.971695,235.323471 112.760048,235.579590 
	C112.887070,235.620865 113.070503,235.488464 114.001984,235.179932 
	C114.001984,233.716537 114.001930,231.982391 114.001991,230.248245 
	C114.003021,202.281601 113.993935,174.314957 114.010857,146.348312 
	C114.016426,137.145706 117.529526,132.383850 126.338066,129.307617 
	C130.562363,127.832367 134.738632,126.219551 139.565811,124.388123 
	C145.469101,122.379242 150.743225,120.651276 156.391983,118.907379 
	C166.271317,115.821213 175.787109,112.784813 185.278046,109.672630 
	C198.640167,105.291046 207.123947,111.416191 207.162186,125.595589 
	C207.221039,147.420517 207.227966,169.245605 207.058563,191.357666 
	C202.490814,194.112320 198.121414,196.579941 193.748947,198.572159 
	C193.767548,186.119843 193.854767,174.142532 193.781616,162.166199 
	C193.748001,156.661987 191.002136,153.974228 186.568604,155.390808 
	C176.290482,158.674835 166.127243,162.318359 155.518585,165.823654 
	C149.736160,167.802338 144.352600,169.773514 138.969040,171.744690 
z"/>
<path fill="#926B" opacity="1.000000" stroke="none" 
	d="
M156.017349,118.923317 
	C150.743225,120.651276 145.469101,122.379242 139.833557,124.131393 
	C139.472137,99.359093 139.472137,74.562599 139.472137,48.386967 
	C197.706467,82.047256 255.295013,115.334290 313.860535,149.186020 
	C277.979156,169.972275 243.059082,190.201630 207.554550,210.710358 
	C202.364731,213.784210 197.759369,216.578720 193.154022,219.373230 
	C181.573700,225.913712 169.987381,232.443604 158.415894,238.999680 
	C153.638031,241.706680 148.915451,244.512192 144.113342,247.174805 
	C143.038803,247.770630 141.736206,247.955170 139.236664,248.735474 
	C139.236664,225.621292 139.236664,203.372604 139.594223,180.570862 
	C145.251373,178.395416 150.550964,176.773026 155.880219,175.605804 
	C155.909882,190.632874 155.909882,205.204773 155.909882,221.469360 
	C169.355804,213.502533 181.553909,206.275040 193.752029,199.047546 
	C198.121414,196.579941 202.490814,194.112320 207.393661,191.296890 
	C209.566040,190.151031 211.260422,189.449066 212.835464,188.540253 
	C231.263535,177.906952 249.676636,167.247681 268.086151,156.582199 
	C271.896667,154.374573 275.676208,152.113403 280.679535,149.163925 
	C238.727463,124.862350 197.895630,101.209702 156.017349,76.950890 
	C156.017349,91.806969 156.017349,105.365143 156.017349,118.923317 
z"/>
<path fill="#E1427A" opacity="1.000000" stroke="none" 
	d="
M207.112335,218.932739 
	C207.131622,235.741425 207.495605,252.561218 206.954575,269.351837 
	C206.797699,274.220367 205.118027,279.778168 202.293884,283.689667 
	C192.151352,297.737244 178.491058,305.639740 160.534561,304.077911 
	C149.357910,303.105804 143.041718,294.013306 146.997360,283.567169 
	C153.264694,267.016205 166.682510,259.192749 183.301849,255.977524 
	C186.533798,255.352264 189.864532,255.237701 193.828491,254.815247 
	C193.828491,245.160568 193.828491,235.556259 194.193390,225.350266 
	C198.742966,222.809967 202.927643,220.871353 207.112335,218.932739 
z"/>
<path fill="#583588" opacity="1.000000" stroke="none" 
	d="
M155.850555,175.150635 
	C150.550964,176.773026 145.251373,178.395416 139.613647,180.140564 
	C139.177887,177.741592 139.080276,175.219879 138.975861,172.221420 
	C144.352600,169.773514 149.736160,167.802338 155.542816,166.294006 
	C155.927475,169.554779 155.889023,172.352722 155.850555,175.150635 
z"/>
<path fill="#C71356" opacity="1.000000" stroke="none" 
	d="
M207.342331,218.625763 
	C202.927643,220.871353 198.742966,222.809967 194.230194,224.883911 
	C193.657532,223.432159 193.412933,221.845078 193.161194,219.815613 
	C197.759369,216.578720 202.364731,213.784210 207.307465,210.964050 
	C207.620697,213.398529 207.596512,215.858673 207.342331,218.625763 
z"/>
<path fill="#fff" opacity="1.000000" stroke="none" 
	d="
M156.391983,118.907379 
	C156.017349,105.365143 156.017349,91.806969 156.017349,76.950890 
	C197.895630,101.209702 238.727463,124.862350 280.679535,149.163925 
	C275.676208,152.113403 271.896667,154.374573 268.086151,156.582199 
	C249.676636,167.247681 231.263535,177.906952 212.835464,188.540253 
	C211.260422,189.449066 209.566040,190.151031 207.592010,191.009857 
	C207.227966,169.245605 207.221039,147.420517 207.162186,125.595589 
	C207.123947,111.416191 198.640167,105.291046 185.278046,109.672630 
	C175.787109,112.784813 166.271317,115.821213 156.391983,118.907379 
z"/>
<path fill="#fff" opacity="1.000000" stroke="none" 
	d="
M155.880219,175.605804 
	C155.889023,172.352722 155.927475,169.554779 155.941681,166.286499 
	C166.127243,162.318359 176.290482,158.674835 186.568604,155.390808 
	C191.002136,153.974228 193.748001,156.661987 193.781616,162.166199 
	C193.854767,174.142532 193.767548,186.119843 193.748947,198.572144 
	C181.553909,206.275040 169.355804,213.502533 155.909882,221.469360 
	C155.909882,205.204773 155.909882,190.632874 155.880219,175.605804 
z"/>
</svg>
  
</g>
<g>
  <svg fill="#00000" width="70px" height="70px" viewBox="5 3 50 50" xmlns="http://www.w3.org/2000/svg"><path d="M25 34c-5 0-9-4-9-9s4-9 9-9 9 4 9 9-4 9-9 9zm0-16c-3.9 0-7 3.1-7 7s3.1 7 7 7 7-3.1 7-7-3.1-7-7-7z"/><path d="M27.7 44h-5.4l-1.5-4.6c-1-.3-2-.7-2.9-1.2l-4.4 2.2-3.8-3.8 2.2-4.4c-.5-.9-.9-1.9-1.2-2.9L6 27.7v-5.4l4.6-1.5c.3-1 .7-2 1.2-2.9l-2.2-4.4 3.8-3.8 4.4 2.2c.9-.5 1.9-.9 2.9-1.2L22.3 6h5.4l1.5 4.6c1 .3 2 .7 2.9 1.2l4.4-2.2 3.8 3.8-2.2 4.4c.5.9.9 1.9 1.2 2.9l4.6 1.5v5.4l-4.6 1.5c-.3 1-.7 2-1.2 2.9l2.2 4.4-3.8 3.8-4.4-2.2c-.9.5-1.9.9-2.9 1.2L27.7 44zm-4-2h2.6l1.4-4.3.5-.1c1.2-.3 2.3-.8 3.4-1.4l.5-.3 4 2 1.8-1.8-2-4 .3-.5c.6-1 1.1-2.2 1.4-3.4l.1-.5 4.3-1.4v-2.6l-4.3-1.4-.1-.5c-.3-1.2-.8-2.3-1.4-3.4l-.3-.5 2-4-1.8-1.8-4 2-.5-.3c-1.1-.6-2.2-1.1-3.4-1.4l-.5-.1L26.3 8h-2.6l-1.4 4.3-.5.1c-1.2.3-2.3.8-3.4 1.4l-.5.3-4-2-1.8 1.8 2 4-.3.5c-.6 1-1.1 2.2-1.4 3.4l-.1.5L8 23.7v2.6l4.3 1.4.1.5c.3 1.2.8 2.3 1.4 3.4l.3.5-2 4 1.8 1.8 4-2 .5.3c1.1.6 2.2 1.1 3.4 1.4l.5.1 1.4 4.3z"/></svg>

</g>
</svg>
